<svg xmlns="http://www.w3.org/2000/svg" viewBox="0 0 640 480"><switch><g><path d="M161.98 278.02c27.08-60.85 81.28-84.68 143.45-66.6 20.83 6.06 42.07 11.8 63.52 14.45 40.71 5.01 70.98-7.12 102.64-37.59-5.72 63.85-65.98 110.05-130.03 98.34-21.29-3.89-43.15-8.9-62.54-18.06-33.37-15.76-64.9-13.86-97.15.96-5.52 2.55-11.18 4.79-19.89 8.5z" fill="#e60580"/><path d="M188.44 180c15.37-48.89 69.36-79.56 121.31-69.74 17.06 3.22 33.56 9.24 50.44 13.51 50.66 12.82 97.35 8.27 135.79-32.71-7.32 66.16-66.68 110.47-132.06 98.39-19.46-3.6-39.61-7.91-57.15-16.55-36.39-17.91-70.86-15.09-105.79 2.15-3.31 1.63-6.88 2.73-12.54 4.95z" fill="#05a0e3"/><path d="M143.11 373.06c10.5-37.39 58.77-74.71 110.1-67.37 25.65 3.67 50.42 13.15 75.99 17.66 42.91 7.57 83.08 2.17 115.15-31.35 2.03-.17 4.06-.33 6.09-.5-7.21 25.58-18.55 48.84-37.82 67.74-23.91 23.44-52.87 33.56-85.53 27.96-23.79-4.07-48.19-9.33-69.98-19.21-32.83-14.87-63.65-14.17-95.5.22-5.6 2.53-11.64 4.09-17.47 6.1l-1.03-1.25z" fill="#fedb05"/></g></switch></svg>