<svg version="1.2" baseProfile="tiny" xmlns="http://www.w3.org/2000/svg" viewBox="0 0 365.56 154.25"><switch><g><path fill="#27357F" d="M365.56 8.58c-1.94 4.61-2.35 9.58-3.31 14.42-.54 2.71-1.48 3.9-4.51 3.72-5.13-.3-10.32.2-15.44-.18-3.64-.27-4.8 1.02-5.44 4.44-4.63 24.77-9.45 49.51-14.23 74.26-3.08 15.95-6.18 31.9-9.28 47.85-8.49 1.4-17.04.38-25.57.54-1.56.03-1.79-1.16-1.27-2.48 7.2-37.45 14.41-74.89 21.59-112.34.75-3.89 3.15-9.08 1.53-11.38-1.77-2.51-7.41-.46-11.33-.82-3.69-.34-8.8 1.81-10.66-1.01-1.44-2.18.87-6.89 1.62-10.46 2.02-9.66 2.04-9.66 12-9.65 21.43.02 42.87.05 64.3.08v3.01z"/><path fill="#27357F" d="M196.67 150.11c4.26-21.14 8.55-42.28 12.72-63.44.45-2.27 1.39-2.93 3.64-2.91 11.31.1 22.62.19 33.93-.03 3.56-.07 3.55 1.82 3.7 4.32.81 13.5 1.71 27 3.45 40.61 1.86-9.11 3.71-18.22 5.58-27.32.96-4.72 2.04-9.41 2.85-14.15.39-2.3 1.06-3.52 3.75-3.43 5.81.2 11.64.09 17.46.04 1.88-.01 3.26.03 2.71 2.66-4.68 22.24-9.27 44.51-13.89 66.76-6.56 1.15-13.16.34-19.74.49-6.45.15-12.91.05-19.36.02-2.63-1.19-2.56-3.84-2.69-5.97-.68-11.71-1.97-23.4-1.99-35.15 0-.56-.21-1.23.28-1.62-1.62 13.03-4.73 25.85-7.42 38.75-.34 1.63-.69 3.25-1.88 4.52h-2c-5.98-1.14-12.01-.32-18.02-.47-2.7-.08-4.25-.63-3.08-3.68zm-36.97.98c4.31-21.45 8.66-42.9 12.88-64.37.44-2.26 1.33-3 3.6-2.97 7.14.12 14.29.06 21.44.03 1.65-.01 2.95-.08 2.43 2.36-4.82 22.69-8.76 45.56-14.28 68.1h-1c-7.31-1.13-14.66-.19-21.98-.54-1.6-.06-4.1.66-3.09-2.61zM74.56 50.52c2.78-13.62 5.69-27.22 8.25-40.88.62-3.32 1.85-4.39 5.16-4.21 4.97.28 9.99.29 14.96 0 3.66-.22 4.48.81 3.71 4.42-3.88 18.18-7.48 36.41-11.27 54.61-2.32 11.15-2.39 11.13-13.83 11.13-8.15 0-16.31-.17-24.45.08-3.35.11-4.12-1.06-4.3-4.18-.78-14.04-1.83-28.06-3.51-42.13-2.8 13.79-5.75 27.54-8.32 41.37-.71 3.83-2.07 5.27-6.08 4.95-5.12-.4-10.31-.19-15.46-.06-2.37.06-3.19-.37-2.64-3.04 4.46-21.45 8.81-42.92 13.09-64.4.41-2.07 1.25-2.73 3.28-2.72 11.65.08 23.3.14 34.94-.02 3.2-.04 2.84 1.86 2.97 3.86.86 12.76 1.75 25.52 2.64 38.28.07.97.22 1.93.33 2.9.18.01.36.03.53.04zm116.59 25.07c10.36-11.54 19.84-22.23 29.51-32.76 2.07-2.26 2.56-4.04 1.21-6.95-4.53-9.77-8.72-19.69-13.38-30.36 10.38 0 20.23-.02 30.08.01 2.13.01 2 1.86 2.4 3.22 1.63 5.52 3.24 11.04 5.07 17.28 4.57-6.17 8.78-11.69 12.79-17.36 1.56-2.21 3.19-3.33 6.09-3.25 8.1.23 16.2.08 25.4.08-7.32 8.22-14.05 15.67-20.65 23.23-3.27 3.74-8.81 6.95-9.13 11.39-.3 4.13 3.78 8.58 5.93 12.89 3.62 7.26 7.23 14.53 11.22 22.56-10.48 0-20.35-.01-30.22 0-2.13 0-2.15-1.82-2.6-3.11-2.28-6.52-4.46-13.08-6.92-20.36-5.09 7.09-9.91 13.56-14.43 20.24-1.7 2.51-3.55 3.39-6.54 3.31-8.25-.19-16.51-.06-25.83-.06z"/><path fill="#E5007E" d="M192.73 25.46c-2.25 17.14-17.33 28.46-33.82 25.75-5.74-.94-11.54-2.05-16.71-4.74-9.29-4.84-18.24-3.79-27.25.47-1.04.49-2.12.93-3.18 1.37-.1.04-.28-.08-.42-.13 4.03-12.96 18.47-20.93 32.87-18.2 6.36 1.21 12.29 4 18.79 4.78 12.15 1.47 20.25-.86 29.72-9.3z"/><path fill="#009EE2" d="M199.33 0c-2.26 17.05-17.73 28.28-34.79 25.24-5.57-.99-11.18-2.11-16.21-4.72-8.76-4.55-17.29-3.73-25.89.17-1.47.67-2.97 1.27-4.67 1.99 4.23-13.5 18.8-20.95 31.49-18.67 4.06.73 8.03 2.07 12 3.23 15.12 4.41 23.9 2.75 38.07-7.24z"/><path fill="#FEDA00" d="M105.36 74.2c5.85-14.08 20-20.96 35.39-17.11 6.42 1.6 12.57 4.2 19.32 4.51 10.64.49 20.07-1.96 27.28-10.72-2.7 18.38-17.12 29.29-34.87 26.67-5.61-.83-11.23-1.96-16.21-4.56-9.1-4.76-17.85-3.88-26.73.27-1.04.49-2.15.84-3.25 1.18-.27.07-.63-.15-.93-.24z"/><path fill="#27357F" d="M160.8 96.87c-1.29-7.51-8.36-12.72-18.89-12.95-14.94-.32-29.9-.06-44.85-.17-2.28-.02-3.19.74-3.62 2.94-4.17 21.13-8.44 42.25-12.67 63.37-1.1 3.07.42 3.74 3.16 3.71 7.29-.08 14.59-.03 21.9-.03 2.74-.37 3.2-2.61 3.72-4.67 1.06-4.16 1.77-8.4 2.6-12.62.55-2.76 1.21-5.12 4.93-4.83 3.71.29 5.83 1.93 6.24 5.69.31 2.84-.66 5.58-.65 8.37 0 2.77-1.38 6.01 1.92 8.04 8.74.32 17.51-.62 26.23.52h1c1.31-6.08-.13-12.21.26-18.3.45-6.96-1.86-12.31-9.16-15.14 2-.72 3.43-1.15 4.79-1.73 9.45-4.02 14.68-12.92 13.09-22.2zm-33.38 16.29c-4.26 1.64-8.71 1.42-13.32.9.46-2.32.85-4.43 1.31-6.52 1.79-8.27 1.8-8.25 10.27-7.43 3.42.33 6.36 1.45 6.72 5.3.35 3.67-1.52 6.42-4.98 7.75zM65.14 84.74c-2.88-.67-5.93-.87-8.91-.9-12.64-.1-25.28.06-37.91-.12-3.09-.04-4.32.82-4.89 3.92-1.99 10.77-4.18 21.5-6.52 32.2-2.28 10.48-3.58 21.17-6.91 31.42v2c2.04.98 4.21.36 6.32.47 6.54.35 13.12-.6 19.65.53h1c1.24-5.49 2.67-10.95 3.65-16.48.47-2.67 1.44-3.56 4.17-3.46 5.31.19 10.66.27 15.95-.13 12.8-.96 23.07-6.26 28.56-18.44 6.21-13.76-.25-27.76-14.16-31.01zm-16.15 30.62c-4.55 2.72-9.53 2.17-14.78 1.78.91-4.59 1.9-8.94 2.6-13.33.35-2.24 1.23-3.24 3.55-3.01 1.81.17 3.66-.03 5.48.13 3.47.31 6.75 1.23 7.56 5.21.81 4.04-.96 7.16-4.41 9.22z"/></g></switch></svg>